<?xml version="1.0" encoding="UTF-8"?>
<svg id="Layer_2" data-name="Layer 2" xmlns="http://www.w3.org/2000/svg" viewBox="0 0 795.19 2015.17">
  <defs>
    <style>
      .cls-1 {
        stroke: #f0b42b;
        stroke-width: 30px;
      }

      .cls-1, .cls-2 {
        fill: none;
        stroke-linecap: round;
        stroke-linejoin: round;
      }

      .cls-3 {
        fill: #161616;
      }

      .cls-2 {
        stroke: #161616;
        stroke-width: 4px;
      }
    </style>
  </defs>
  <g id="Female_Body_Anatomy_Types" data-name="Female Body Anatomy Types">
    <g>
      <g>
        <path class="cls-2" d="M793.06,1924.66c-1.59,16.55-25.54,32-41.15,40.41-7.81,4.18-17.3,3.72-23.47-1.15-4.71-3.72-9.8-8.05-12.42-11.22-5.62-6.82-6.49-28.45-18.19-51.51-11.7-23.04-17.13-52.88-27.7-68.23-1.63-2.35-2.76-5.31-3.53-8.6-.02-.02-.02-.05-.02-.05-1.35-3.15-2.52-6.44-3.48-9.85-35.08-123.85-109.67-182.45-154.75-336.69-13.33-45.72-39.71-78.59-55.45-95.14-6.99-7.37-12.35-23.55-14.59-31.19-.85-2.91-1.9-5.76-3.12-8.54-14.58-33.2-29.7-83.73-41.97-129.24-12.81-47.55-41.16-189.82-41.25-190.4,79.67-156.55,171.01-148.04,181.05-157.82,26.76,63.03,10.86,285.75-.94,427.27-1.18,14.13,3.68,28.09,13.43,38.38,27.54,29.08,62.2,71.76,96.71,176.61,36.4,110.66,66.96,250.61,75.7,281.67.14.53.29,1.03.43,1.54,12.85,17.11,21.96,40.7,32.12,60.28,14.22,27.41,44.95,48.82,42.6,73.47Z"/>
        <path class="cls-2" d="M533.01,865.44c-.17-.41-.36-.82-.53-1.23"/>
        <path class="cls-2" d="M264.44,1387.87c-5.84,22.56-11.27,56.92-5.38,95.93,23.18,154.14-14.29,235.95,2.81,357.52v.02c3,7.18,4.9,14.42,4.01,20.18-2.74,18.02,4.68,47.21,4.06,72.68-.6,25.44,7.35,45.43,5.36,53.77-.94,3.92-3.51,9.8-5.98,14.99-3.27,6.82-11.12,10.91-19.41,10.11-16.55-1.59-43.05-6.37-51.05-20.78-11.92-21.48,5.45-52.78,6.46-83.17.62-19-.7-40.48,1.66-59.32-.12-.72-.24-1.44-.36-2.19-5.07-31.59-35.29-170.51-48.84-285.08-11.2-94.71-3.32-146.46,6.63-182.71-.12-1.2-.19-2.4-.19-3.63-.34-53.17-15.23-117.29-25.66-235.61-12.13-137.38-6.87-252.77.41-275.38,10.02,21.29,125.17,13.72,180.62,158.06,0,85.48-33.64,255-38.56,285.03-6.17,37.62-10.6,61.7-16.55,79.48,0,.02,0,.05-.02.1Z"/>
        <path class="cls-2" d="M139.75,863.14c-.26.58-.53,1.25-.79,2.07"/>
        <path class="cls-2" d="M242.83,100.09c-.24-.48-.38-.72-.38-.72,0,0-3.63-4.71-7.81-.77-4.18,3.94,2.26,41.32,3.92,44.76,1.39,2.88,8.43,19.92,14.25,14.94"/>
        <path class="cls-2" d="M385.16,158.14c5.84,5.53,13.05-11.87,14.44-14.78,1.66-3.44,8.1-40.82,3.92-44.76-4.18-3.94-7.81.77-7.81.77,0,0-.22.38-.6,1.11"/>
        <path class="cls-2" d="M244.38,85.62c3.7-27.47,3.22-84.28,74.3-83.62h0c.1,0,.18,0,.28,0,.1,0,.18,0,.28,0h0c71.08-.66,70.6,56.15,74.3,83.62,3.71,27.55,2.78,45.25-9.27,74.77-12.06,29.51-15.76,62.91-38.95,76.68-5.58,3.31-17.11,11.39-21.36,11.64-.6.04-7.27.05-7.87.02-6.44-.25-17.4-8.05-23.48-11.66-23.18-13.77-26.89-47.17-38.95-76.68-12.06-29.51-12.98-47.22-9.27-74.77Z"/>
        <path class="cls-2" d="M159.3,524.02c-3.44,21.5-15.88,96.97-18.55,106.16-2.49,8.55-3.76,17.39-3.83,26.3-.03,3.73-.25,8.02-.61,12.96-2.74,37.29-28.83,176.68-38.39,214.62-3.8,15.16.74,68.9-2.04,90.07v.02c1.35,10.72-9.01,58.53-10.43,61.77-12.18,28.06-36.61,48.94-14.56-.38,5.31-11.89,5.09-39.18-3.84-18.62-8.94,20.57-16.75,40.03-24.79,63.86-5.86,17.42-10.19,32.41-12.71,37.5-1.1,2.26-6.56-2.19-7.33-5.24-1.61-6.22,21.6-76.86,20.9-78.18-.55-1.11-21.65,74.09-22.63,74.57-3.29,1.63-7.26-4.47-6.73-8.14.29-2.09,19.44-75.17,18.52-76.64-.91-1.49-17.61,69.62-18.76,72-1.49,3.08-6.63-5.36-6.78-9.8-.12-3.2,16.75-68.47,16.63-69.96-.94,1.49-18.14,63.26-18.72,62.44-2.98-4.11-6.87-9.11,9.68-70.68,6.73-25.03,25.83-56.32,41.08-71.67.14-1.06.34-2.11.6-3.17,7.18-29.48-2.5-178.65,7.06-239.94,1.58-10.18,4.74-21.04,8.76-31.02,1.99-4.93,3.84-10.06,3.81-15.37-.36-63,14.73-155.4,34.08-268.39,7.81-45.62,20.33-54.46,44.85-64.03,37.38-10.79,56.58-16.82,92.3-22.42,9.47-1.49,21.53-6.61,25.18-14.85,5.77-13.07,6.13-40.15,8.14-51.92,0-.07.02-.12.02-.17"/>
        <path class="cls-2" d="M351.96,232.48c2.07,12.04,4.71,31.3,10.28,46.13,2.95,7.83,10.57,12.83,19.44,13.96,48.39,6.2,66.14,9.66,87.48,17.37,18.33,5.96,35.12,39.33,50.21,85.63,25.95,79.59,51.4,160.16,66.04,206.83,6.94,22.12,17.43,42.86,30.3,62.14,1.45,2.18,2.82,4.37,4.09,6.55,25.46,43.97,74.17,168.39,91.44,213.82,3.84,10.11,9.81,19.24,17.31,27.03,14.79,15.34,30.79,38.2,38.16,57.66,22.44,59.1,18.96,64.32,16.31,68.57-.53.86-24.17-59.77-24.7-59.75.02,1.47,23.09,64.15,23.28,67.29.26,4.37-4.16,13.05-5.96,10.14-1.37-2.23-24.82-70.63-25.61-69.12-.79,1.51,25.32,71.67,25.8,73.71.86,3.56-2.57,9.85-6.05,8.5-1.03-.41-29.33-72.46-29.79-71.33-.58,1.35,29.41,68.78,28.37,75.01-.5,3.05-5.62,7.86-6.94,5.74-3-4.83-8.77-19.2-16.31-35.8-10.33-22.73-20.04-41.18-30.99-60.64-10.95-19.46-8.65,7.3-2.16,18.55,26.86,46.63.22,28.09-14.7,1.54-1.73-3.08-16.84-49.8-16.27-59.99.36-6.13-.05-14.44-.46-20.11-8.87-22.82-18.79-53.38-25.51-62.85-22.68-32-97.54-152.61-113.52-186.27l-.09-.19c-5.06-10.7-10.98-20.96-17.39-30.91-19.58-30.41-34.26-68.76-40.3-82.14"/>
        <path class="cls-3" d="M533.95,863.28c.05.82-.26,1.54-.94,2.16-10.04,9.78-101.39,1.27-181.05,157.82-.7,1.35-31.88,1.37-32.39,0-55.45-144.34-170.6-136.77-180.62-158.06-.34-.65-.55-1.34-.65-2.07-1.38-132,31.85-217.93,38.69-255.05,3.04-16.49-9.3-51.27-17.69-84.06v-.02c-8.91-34.74-7.3-70.66,40.39-90.81,53.12-22.44,126.64,49.59,126.64,49.59,45.2-42.03,90.24-57.07,119.99-42.03,54.3,27.41,51.53,81.89,37.4,118.79-4.85,12.69-5.42,23.5-8.71,31.16-14.87,34.72,50.97,133.53,58.95,272.58Z"/>
      </g>
      <ellipse class="cls-1" cx="319.57" cy="668.8" rx="264.77" ry="378.48"/>
    </g>
  </g>
</svg>