<?xml version="1.0" encoding="UTF-8"?>
<svg id="Layer_2" data-name="Layer 2" xmlns="http://www.w3.org/2000/svg" viewBox="0 0 686.26 2044.12">
  <defs>
    <style>
      .cls-1 {
        stroke: #f0b42b;
        stroke-width: 30px;
      }

      .cls-1, .cls-2 {
        fill: none;
        stroke-linecap: round;
        stroke-linejoin: round;
      }

      .cls-3 {
        fill: #161616;
      }

      .cls-2 {
        stroke: #161616;
        stroke-width: 4px;
      }
    </style>
  </defs>
  <g id="Female_Body_Anatomy_Types" data-name="Female Body Anatomy Types">
    <g>
      <g>
        <path class="cls-2" d="M120.56,881.95c-37.07,106.86-20.59,148.93-9.35,279.29,10.21,118.28,11.94,221.87,12.18,224.25h0c-12.95,36.13-26.38,87.74-21.5,191.67,5.38,115.03,25.06,255.19,27.8,286.98.07.74.12,1.49.19,2.21-3.44,18.67-3.6,40.17-5.43,59.13-2.93,30.32-21.48,60.71-11.56,82.74,6.66,14.78,31.52,20.83,47.16,23.23,7.83,1.2,15.54-2.52,19.1-9.18,2.69-5.04,5.5-10.81,6.65-14.65,2.45-8.24-3.82-28.59-1.56-53.96,2.23-25.37-2.91-54.87.89-72.72,1.23-5.72-.12-13.05-2.52-20.37-8.31-122.22,32.65-202.05,20.66-357.08-3.63-46.92,7.66-86.44,15.4-107.18,4.16-11.12,10.04-65.13,11.6-86.75,2.19-30.3,41.11-227.46,41.11-280.81"/>
        <path class="cls-2" d="M290.29,1027.73c.02.58,46.89,244.43,52.87,274.29,6.46,32.12,13.82,90.1,16.46,97.47,7.35,20.57,18.04,59.89,14.15,107.06-13.09,159.12,28.16,238.06,16.75,365.47-.31,3.58-.43,7.09-.36,10.52-.43,3.29-.46,6.39.1,9.08,3.6,17.78-1.59,47.52.46,72.89,2.02,25.39-4.18,45.96-1.85,54.15,1.11,3.82,3.82,9.51,6.39,14.51,3.41,6.56,10.91,10.04,18.52,8.63,15.23-2.86,39.45-9.66,46.01-24.65,9.8-22.37-8.07-52.3-10.74-82.6-1.92-21.65-1.68-46.7-6.56-66.91.05-.5.1-1.01.14-1.51,2.91-31.95,23.11-173,29.21-288.49,4.42-83.37-2.79-132.91-12.15-167.76-5.56-20.68-7.52-42.12-5.93-63.47,2.69-36.11,6.94-96.69,10.85-168.26,7.02-128.49,19.72-214.14-3.53-284.36"/>
        <path class="cls-2" d="M207.79,100.1c-.23-.48-.36-.72-.36-.72,0,0-3.42-4.71-7.36-.77-3.94,3.94,2.13,41.32,3.69,44.76,1.31,2.88,7.95,19.92,13.43,14.94"/>
        <path class="cls-2" d="M341.98,158.15c5.5,5.53,12.3-11.87,13.61-14.78,1.56-3.44,7.63-40.82,3.69-44.76-3.94-3.94-7.36.77-7.36.77,0,0-.2.38-.57,1.11"/>
        <path class="cls-2" d="M341.98,158.14c-.26.74-.55,1.49-.84,2.26-10.81,28.06-14.51,59.65-33.66,74.5-.98.79-2.02,1.51-3.08,2.19-5.26,3.29-16.12,11.39-20.13,11.63-.58.05-6.87.05-7.42.02-6.08-.26-16.41-8.05-22.13-11.65-.87-.55-1.71-1.13-2.5-1.73-19.65-14.7-23.33-46.63-34.24-74.96-.26-.7-.53-1.39-.79-2.09-8.6-22.9-10.72-38.73-9.42-58.21.31-4.56.82-9.35,1.47-14.46,3.48-27.48,3.03-84.28,70.06-83.63h1.66c65.88,0,65.47,56.29,68.93,83.63.67,5.26,1.18,10.16,1.47,14.85,1.27,19.24-.87,35-9.37,57.66Z"/>
        <path class="cls-2" d="M681.21,1075.4c-.72,0-12.06-61.74-12.81-63.23-.19,1.47,10.79,67.2,10.5,70.32-.41,4.32-5.5,11.94-6.63,8.74-.87-2.45-11.34-73.88-12.25-72.53-.89,1.32,11.63,74.96,11.77,77.05.24,3.65-3.65,9.13-6.49,7.14-.84-.6-14.97-76.54-15.54-75.53-.67,1.2,15.59,72.96,13.79,78.85-.87,2.88-5.98,6.56-6.82,4.23-1.92-5.29-4.85-20.45-8.99-38.15-5.69-24.24-11.44-44.16-18.11-65.32-6.68-21.17-8.55,5.45-4.54,17.73,16.55,50.79-3.87,27.46-12.95-1.39-1.06-3.36-7.42-51.97-5.45-61.79,1.18-5.89,2.02-14.01,2.5-19.6-4.4-24.05-8.62-55.95-13.07-66.53-15.04-35.72-53.5-132.16-62.51-168.2-1.36-5.47-7.8-31.74-10.94-45.5-1.16-5.08-3.05-9.96-5.72-14.43-14.17-23.77-27.41-57.74-31.12-66.78-.72-1.75-26.67-57.97-46.7-96.6.94-4.73,1.59-9.39,1.9-13.91,2.16-32.7-105.76-78.97-159.48-20.59,0,0-22.34-27.6-56.51-33.54-25.63-4.44-52.52,8.46-67.17,17.23-7.45,4.44-12.2,12.73-12.4,21.81-.48,21.65,4.9,44.52,12.83,67.61-3.87,16.87-18.69,83.15-18.96,84.88-1.68,10.62-6.78,45.94-15.93,68.18-.29,1.87-.6,3.89-.96,6.01-6.22,36.69-43.37,172.79-55.62,209.69-3.58,10.74-5.36,42-7.83,66.19v.02c1.32,4.61,2.93,9.78,4.52,13.74,3.68,9.2,5.91,58.12,5.45,61.62-3.92,30.18-19.94,57.35-12.52,4.11,1.8-12.83-4.68-38.46-7.57-16.36-2.88,22.13-5.05,42.86-6.41,67.77-.98,18.19-1.2,33.64-2.16,39.23-.41,2.45-6.1-.05-7.47-2.69-2.79-5.38.67-79.02-.22-80.05-.74-.87-1.37,76.42-2.09,77.19-2.43,2.57-7.21-1.97-7.62-5.6-.24-2.07-.79-76.78-1.9-77.89-1.13-1.1,1.06,70.99.62,73.59-.55,3.36-6.9-3-8.05-7.14-.82-3-1.51-69.65-1.97-71.02-.43-1.37-.82,65.18-1.54,64.58-3.48-2.95-7.98-6.46-8.07-69.58-.05-28.45,11.1-68.86,21.62-85.79v-.02c.29-1.8.74-3.6,1.32-5.41,9.32-28.69,16.07-176.8,30.73-236.77,2.96-12.1,5.37-20.37,8.88-27.45,6.44-13,10.63-27,11.82-41.46,4.42-53.46,20.16-139.23,28.74-240.43,3.1-36.35,13.24-58.77,31.54-72.36,6.92-5.14,14.75-8.65,22.97-10.72,19.29-4.8,48.96-11,73.04-17.92,1.87-.53,3.48-1.83,4.49-3.56,8.22-14.05,12.76-36.47,15.06-51.7.79.6,1.63,1.18,2.5,1.73,5.72,3.6,16.05,11.39,22.13,11.65.55.02,6.85.02,7.42-.02,4.01-.24,14.87-8.34,20.13-11.63,1.06-.67,2.09-1.39,3.08-2.19,2.23,14.87,6.61,36.81,14.51,51.05,1.39,2.52,3.72,4.28,6.39,5,32.05,8.6,135.89,22.92,153.4,64.7,48.19,115.02,82.3,205.97,88,260.29,1.23,11.72,5.3,22.93,11.28,33.09,13.85,23.5,16.91,42.72,22.34,59.28,16.24,49.56,33.95,171.12,39.15,209.34.97,7.11,3.46,13.89,7.29,19.96,11.33,17.91,23.24,45.66,27.09,67.62,10.93,62.13,7.16,66.53,4.28,70.18Z"/>
        <path class="cls-3" d="M289.72,1030.88c-.62,1.35-16.96,2.93-17.41,1.56-64.41-126.11-138.12-148.81-150.9-150.33-.74-.07-1.25-.77-1.06-1.54,17.13-68.21,91.73-127.16,94.78-190.95,2.16-45.17-36.11-106.91-56.84-167.17-7.93-23.09-13.31-45.96-12.83-67.61.19-9.08,4.95-17.37,12.4-21.81,14.66-8.77,41.54-21.67,67.17-17.23,34.16,5.93,56.51,33.54,56.51,33.54,53.72-58.38,161.64-12.11,159.48,20.59-.31,4.52-.96,9.18-1.9,13.91-11.34,56.8-65.08,127.67-71.09,173.22-13.86,105.04,71.16,136.13,93.53,234.58,3,13.24-107.06,11.34-171.84,139.22Z"/>
        <path class="cls-2" d="M159.08,519.07c-.14.6-.41,1.78-.79,3.39"/>
        <line class="cls-2" x1="307.48" y1="234.9" x2="307.48" y2="234.88"/>
      </g>
      <path class="cls-1" d="M355.81,681.15c32.06-40.94,153.78-289.45,171.96-347.28H54.15c18.18,57.83,139.9,306.34,171.96,347.28-32.06,40.94-153.78,289.45-171.96,347.28h473.63c-18.18-57.83-139.9-306.34-171.96-347.28Z"/>
    </g>
  </g>
</svg>