<?xml version="1.0" encoding="UTF-8"?>
<svg id="Layer_2" data-name="Layer 2" xmlns="http://www.w3.org/2000/svg" viewBox="0 0 555.4 2058.63">
  <defs>
    <style>
      .cls-1 {
        stroke: #f0b42b;
        stroke-width: 30px;
      }

      .cls-1, .cls-2 {
        fill: none;
        stroke-linecap: round;
        stroke-linejoin: round;
      }

      .cls-3 {
        fill: #161616;
      }

      .cls-2 {
        stroke: #161616;
        stroke-width: 4px;
      }
    </style>
  </defs>
  <g id="Female_Body_Anatomy_Types" data-name="Female Body Anatomy Types">
    <g>
      <g>
        <path class="cls-2" d="M308.05,1895.13c-.74-2.74-1.78-5.57-3.03-8.41v-.02c.17-1.73.34-3.41.43-5.05.24,1.11.51,2.23.77,3.36.79,3.41,1.39,6.8,1.83,10.11Z"/>
        <path class="cls-2" d="M308.05,1895.13c-.74-2.74-1.78-5.57-3.03-8.41v-.02c.17-1.73.34-3.41.43-5.05.24,1.11.51,2.23.77,3.36.79,3.41,1.39,6.8,1.83,10.11Z"/>
        <path class="cls-2" d="M374.79,1025.38c-7.09,29.62-1.11,61.1,10.86,8.62,2.88-12.64,18.6-34.04,13.43-12.32-5.19,21.72-10.55,41.88-18.26,65.61-5.62,17.35-10.98,31.83-12.06,37.41-.48,2.45,6.05,2.31,8.36.38,4.71-3.94,27.99-73.93,29.21-74.55,1.06-.53-26.36,71.76-25.9,72.75,1.47,3.34,7.83.94,9.56-2.28.96-1.83,28.61-71.26,30.1-71.86,1.51-.6-26.76,65.76-27.29,68.33-.67,3.36,7.88-.14,10.55-3.56,1.23-1.59,11.96-27.8,19.7-46.56-.22,1.66-.43,3.36-.67,5.09-6.34,17.08-13.77,37-13.24,36.83,2.26-.7,4.78-1.44,9.61-9.25-1.99,15.52-4.2,33.08-6.58,53.24-6.21,52.51-11.28,94.52-15.2,129.66-2.73,24.55-1.37,49.34,4.05,73.44,9,40.04,19.94,117.15,6.56,215.08-15.57,114.07-46.1,251.95-51.51,283.4-.12.74-.26,1.49-.38,2.23,1.3,18.86-.58,40.27-.74,59.27-.26,30.39,13.24,62.22,2.4,83.32-5.17,10.07-18.02,14.97-30.08,17.37-2.4-10.07-6.51-24.05-7.74-40.72-1.87-25.39-10.84-53.82-10.21-72,.1-2.81-.38-5.93-1.27-9.18-.43-3.32-1.03-6.7-1.83-10.11-.26-1.13-.53-2.26-.77-3.36v-.05c.46-5.38.58-10.35.17-14.68-.53-5.77,1.32-12.93,4.11-20.01,18.88-121.01-9.75-203.92,15.38-357.28,2.16-13.16,2.79-31.43,2.91-45.4.1-11.24-2.18-22.37-6.88-32.58-9.06-19.72-12.96-46-18.98-98.46-3.48-30.18-9.9-134.4-9.9-309.01,51.22-143.79,117.58-131.25,124.91-151.84,4.76,12.25,8.12,25.23,10.74,45.43v.05c-1.78,13.24-10.21,39.79-15.95,61.12v.02c-2.98,3.77-6.46,7.95-9.44,11.08-6.97,7.16-26.91,51.87-27.72,55.33Z"/>
        <path class="cls-2" d="M417.17,852.35v-.02"/>
        <path class="cls-2" d="M329.05,2029.41c-.41,3.96-2.02,10.07-3.6,15.45-2.09,7.09-8.29,11.84-15.33,11.77-14.03-.12-36.69-2.55-44.73-16.19-12.01-20.35-.38-53.05-2.4-83.41-1.44-21.69-5.29-46.34-3.87-67.1-.12-.5-.24-1.01-.36-1.54-7.23-31.02-45.82-166.64-68.11-279.51-16.88-85.57-13.81-156.53-8.2-200.13,5.22-40.59,4.75-81.7-1.92-122.08-5.83-35.27-13.29-77.52-22.72-130.62-24.96-140.57-31.86-132.71-32.1-213.01-.12-44.23,6.1-67.13,16-91.22,8.62,6.58,61.34,5.33,130.67,152.27.07.58,6.22,268.34,4.52,298.81-2.19,38.87,2.31,84.19-2.09,110.42-3.62,21.59-7.42,62.27,2.91,108.14,34.57,153.26.24,238.25,27.75,360.15v.05c-.1,1.63-.26,3.32-.43,5.05v.02c1.25,2.83,2.28,5.67,3.03,8.41.89,3.24,1.37,6.37,1.27,9.18-.62,18.19,8.34,46.61,10.21,72,1.23,16.67,5.33,30.66,7.74,40.72,1.27,5.26,2.09,9.44,1.78,12.37Z"/>
        <path class="cls-2" d="M508.34,647.47c-2.01,11.16-2.45,22.57-.84,33.8,1.84,12.84,2.23,27.25.73,39.98-7.26,61.5-54.27,202.15-55.47,232.47-.07,1.9-.29,3.72-.67,5.48,4.25,19.8.65,61.84-9.73,88.36-11.53,29.5-18.72,44.59-23.59,52.47-4.83,7.81-7.35,8.55-9.61,9.25-.53.17,6.89-19.75,13.24-36.83,4.61-12.47,8.67-23.42,8.67-23.95h-.02c-.34.38-3.68,8.48-7.98,18.86-7.74,18.76-18.48,44.97-19.7,46.56-2.67,3.41-11.22,6.92-10.55,3.56.53-2.57,28.81-68.93,27.29-68.33-1.49.6-29.14,70.03-30.1,71.86-1.73,3.22-8.1,5.62-9.56,2.28-.46-.99,26.96-73.28,25.9-72.75-1.23.62-24.51,70.61-29.21,74.55-2.31,1.92-8.84,2.07-8.36-.38,1.08-5.57,6.44-20.06,12.06-37.41,7.71-23.74,13.07-43.89,18.26-65.61,5.17-21.72-10.55-.31-13.43,12.32-11.96,52.47-17.95,21-10.86-8.62.82-3.46,20.76-48.17,27.72-55.33,2.98-3.12,6.46-7.3,9.44-11.08v-.02c5.74-21.33,14.17-47.88,15.95-61.12v-.05c.19-1.32.31-2.47.34-3.53,1.25-39.09,13.89-180.24,21.05-216.83.01-.06.02-.11.03-.17,1.74-8.97,1.71-18.21-.42-27.1-3.85-16.05-6.01-32.73-6.56-42.96-.05-.86-2.14-21.84-4.42-44.52,19.15-45.94,15.42-79.64-4.49-97.3-70.3-62.42-157.72,19.8-157.72,19.8-43.65-33.56-89.93-52.42-118.25-39.14-4.13,1.95-21.72,8.67-30.44,26.93-11.36,23.76-19.48,50.33,6.63,103.4,1.06,2.14,2.09,4.18,3.1,6.13-1.17,17.83-4.42,43.11-9.43,65.28-2.11,9.35-3.03,18.92-2.47,28.49.26,4.4.23,9.69.03,16.1-1.25,37.24-20.64,177.64-28.18,216.01-2.23,11.34.53,43.32,1.37,67.8,1.73,5.33,4.44,13.17,7.02,18.67,4.23,9.11,8.55,58,8.19,61.53-2.93,30.27-18.81,57.85-13.07,4.42,1.39-12.9-6.51-38.39-8.67-16.19-2.16,22.2-3.63,43-4.08,67.97-.31,18.23.05,33.71-.72,39.3-.36,2.47-6.49.1-8.02-2.5-3.17-5.31-2.43-79.09-3.41-80.1-.82-.87,1.59,76.52.87,77.29-2.5,2.62-7.74-1.8-8.31-5.41-.31-2.07-3.87-76.83-5.09-77.89-1.25-1.1,3.94,70.99,3.58,73.59-.46,3.39-7.4-2.81-8.79-6.94-1.01-2.96-4.4-69.65-4.93-71.02-.5-1.35,1.73,65.25.96,64.68-3.82-2.88-8.72-6.27-11.34-69.43-1.08-26.19,7.47-62.73,16.96-81.81-.53-3.68-.48-7.52.26-11.51,5.65-29.81-8.6-177.4-1.85-238.98,1.05-9.61,3.36-19.89,6.44-29.56,5-15.69,6.02-32.32,3.45-48.59-7.41-46.89-5.13-126.26,2.36-241.74,3.17-48.58,16.67-75.2,33.71-81.16,19.77-7.71,75.97-19.63,120.85-25.83,8.19-1.13,15.26-6.13,17.99-13.96,5.19-14.82,7.62-34.09,9.54-46.13,1.03.79,2.14,1.51,3.27,2.19,5.57,3.32,17.11,11.39,21.36,11.65.6.02,7.26.02,7.86.02,6.46-.26,17.42-8.07,23.5-11.68,4.06-2.4,7.52-5.43,10.52-8.91,1.9,11.72,2.21,38.92,7.59,52.06,3.36,8.24,14.54,13.36,23.33,14.85,33.13,5.57,90.74,18.93,111.31,26.84,22.73,9.56,37.43,17.97,41.59,64.03,11.2,124.56,14.93,212.29,6.07,261.54Z"/>
        <path class="cls-2" d="M357.69,100.09c.24-.48.38-.72.38-.72,0,0,3.63-4.71,7.81-.77,4.18,3.94-2.26,41.32-3.92,44.76-1.39,2.88-8.43,19.92-14.25,14.94"/>
        <path class="cls-2" d="M215.36,158.13c-5.84,5.53-13.05-11.87-14.44-14.78-1.66-3.44-8.1-40.82-3.92-44.76s7.81.77,7.81.77c0,0,.22.38.6,1.11"/>
        <path class="cls-2" d="M346.87,160.38c-9.95,24.36-14.2,51.34-28.42,67.75v.02c-3,3.48-6.46,6.51-10.52,8.91-6.08,3.6-17.03,11.41-23.5,11.68-.6,0-7.26,0-7.86-.02-4.25-.26-15.78-8.34-21.36-11.65-1.13-.67-2.23-1.39-3.27-2.19-20.3-14.85-24.24-46.42-35.7-74.5-.31-.74-.6-1.51-.89-2.23-11.2-28.18-11.99-45.67-8.36-72.53,3.65-27.29,3.2-83.61,73.04-83.61h1.8c71.09-.67,70.61,56.15,74.31,83.61.7,5.12,1.23,9.9,1.54,14.49,1.44,20.06-.98,36.25-10.81,60.28Z"/>
        <path class="cls-2" d="M432.11,505.28s3.03,29.96,5.81,57.4"/>
        <line class="cls-2" x1="318.45" y1="228.15" x2="318.45" y2="228.13"/>
        <path class="cls-2" d="M137.21,569.89c0,3.53-.17,7.78-.46,12.61"/>
        <path class="cls-3" d="M437.93,562.68c-2.59,6.27-5.65,12.81-9.13,19.53-13.72,26.45-41.37,35.89-49.37,110.18-3.77,34.86.82,88,38.3,157.65-.1.79-.29,1.56-.55,2.28v.02c-7.33,20.59-73.68,8.05-124.91,151.84-.48,1.37-19.24,1.25-19.89-.1-69.34-146.94-122.05-145.69-130.67-152.27-1.15-.89-1.51-1.9-1.03-3.44,3.63-11.46,40.58-113.16,36.66-163.68-4.49-58.14-18.48-59.7-40.58-102.2-1.01-1.95-2.04-3.99-3.1-6.13-26.11-53.07-17.99-79.64-6.63-103.4,8.72-18.26,26.31-24.99,30.44-26.93,28.33-13.29,74.6,5.57,118.25,39.14,0,0,87.43-82.21,157.72-19.8,19.92,17.66,23.64,51.37,4.49,97.3Z"/>
      </g>
      <polygon class="cls-1" points="277.7 1036.9 15 350.06 540.4 350.06 277.7 1036.9"/>
    </g>
  </g>
</svg>