<?xml version="1.0" encoding="UTF-8"?>
<svg id="Layer_2" data-name="Layer 2" xmlns="http://www.w3.org/2000/svg" viewBox="0 0 668.79 2052.39">
  <defs>
    <style>
      .cls-1 {
        stroke: #f0b42b;
        stroke-width: 30px;
      }

      .cls-1, .cls-2 {
        fill: none;
        stroke-linecap: round;
        stroke-linejoin: round;
      }

      .cls-3 {
        fill: #161616;
      }

      .cls-2 {
        stroke: #161616;
        stroke-width: 4px;
      }
    </style>
  </defs>
  <g id="Female_Body_Anatomy_Types" data-name="Female Body Anatomy Types">
    <g>
      <g>
        <path class="cls-2" d="M547.87,848.39c45.7,116.47,25.37,199.67,14.05,314.99-7.94,80.99-16.1,154.18-20.53,193-2.05,17.95-.98,36.09,3.22,53.66,7.92,33.17,19.75,96.39,16.23,167.13-5.72,115.03-26.6,255.17-29.5,286.98-.07.74-.14,1.49-.19,2.21,3.65,18.67,3.82,40.17,5.77,59.13,3.1,30.3,22.78,60.71,12.25,82.72-7.06,14.78-33.44,20.85-50.02,23.23-8.31,1.2-16.5-2.5-20.25-9.15-2.86-5.05-5.86-10.81-7.06-14.66-2.59-8.26,4.04-28.59,1.66-53.96-2.38-25.39,3.08-54.9-.94-72.75-1.3-5.69.12-13,2.64-20.3,8.87-122.24-34.62-202.07-21.89-357.13,3.84-46.94-8.14-86.47-16.34-107.2-4.4-11.1-10.64-65.11-12.3-86.75-2.33-30.27-37.58-250.32-37.58-303.68"/>
        <path class="cls-2" d="M365.23,1004.5c.05.58.12,1.13.17,1.68,9.63,98.07-10.86,265.19-13.36,295.6-1,12.06-2.15,98.52-2.73,110.25-.59,11.94-11.1,54.4-3.46,101.1,25.73,157.6-11.99,239.77,9.59,365.9.62,3.53.99,7.04,1.15,10.45.72,3.27.99,6.34.6,9.08-2.47,18.02,5.21,47.26,4.97,72.72-.26,25.47,7.83,45.48,5.98,53.84-.86,3.89-3.32,9.8-5.67,14.99-3.12,6.85-10.79,10.95-18.93,10.16-16.31-1.56-42.43-6.32-50.5-20.73-12.01-21.48,4.64-52.83,5.21-83.27.38-21.74-1.73-46.68,1.92-67.2-.07-.5-.17-1.06-.26-1.59-5.45-31.62-37.36-170.6-52.45-285.25-10.56-80.1-7.22-129.52-.37-164.84,2.67-13.76,2.95-27.84.81-41.69-6.2-40.03-20.2-126.83-37.63-212.05-25.18-123.06-39.3-136.94-37.41-217.21,1.06-44.21,1.44-60.23,10.14-86.23"/>
        <path class="cls-2" d="M448.52,100.09c.24-.48.38-.72.38-.72,0,0,3.63-4.71,7.81-.77,4.18,3.94-2.26,41.32-3.92,44.76-1.39,2.88-8.43,19.92-14.25,14.94"/>
        <path class="cls-2" d="M306.2,158.14c-5.84,5.53-13.05-11.87-14.44-14.78-1.66-3.44-8.1-40.82-3.92-44.76s7.81.77,7.81.77c0,0,.22.38.6,1.11"/>
        <path class="cls-2" d="M446.98,85.62c-3.7-27.47-3.22-84.28-74.3-83.62h0c-.1,0-.18,0-.28,0-.1,0-.18,0-.28,0h0c-71.08-.66-70.6,56.15-74.3,83.62-3.71,27.55-2.78,45.25,9.27,74.77,12.06,29.51,15.76,62.91,38.95,76.68,5.58,3.31,17.11,11.39,21.36,11.64.6.04,7.27.05,7.87.02,6.44-.25,17.4-8.05,23.48-11.66,23.18-13.77,26.89-47.17,38.95-76.68,12.06-29.51,12.98-47.22,9.27-74.77Z"/>
        <path class="cls-2" d="M401.39,235.37c2.45,15.23,7.28,37.65,15.98,51.68,1.08,1.75,2.79,3.03,4.76,3.58,25.54,6.9,60.64,13.67,81.11,18.48,8.72,2.04,17.01,5.57,24.34,10.69,19.44,13.62,33.11,37.98,36.4,74.31,10.38,115.3,20.32,196.39,18.94,244.98-.13,4.68,1.03,9.28,3.44,13.29,6.53,10.87,24.78,57,28.43,71.82,22.25,90.27,17.8,184.86,27.67,213.55.62,1.8,1.08,3.6,1.39,5.41,11.15,16.96,22.99,57.37,22.94,85.82-.12,63.09-4.88,66.6-8.58,69.55-.74.6-1.18-65.95-1.63-64.58-.46,1.37-1.2,68.04-2.09,71.02-1.22,4.13-7.93,10.5-8.53,7.13-.46-2.59,1.85-74.69.65-73.56-1.18,1.11-1.75,75.82-1.99,77.89-.43,3.6-5.5,8.14-8.1,5.57-.77-.74-1.42-78.06-2.21-77.19-.94,1.03,2.74,74.69-.22,80.08-1.47,2.62-7.5,5.14-7.93,2.67-1.01-5.57-1.25-21.02-2.31-39.23-1.44-24.91-3.75-45.65-6.8-67.75-3.05-22.13-9.92,3.51-8.02,16.36,7.88,53.22-9.13,26.04-13.26-4.13-.48-3.51,1.87-52.4,5.77-61.6,1.68-3.96,3.39-9.13,4.78-13.72-2.62-24.19-4.47-55.5-8.26-66.26-12.82-36.3-52.18-174.55-59.68-213.85-.23-1.19-.58-2.34-1.05-3.46-9.28-22.28-14.44-56.18-16.18-66.54-.31-1.9-21.69-135.48-23.5-142.49"/>
        <path class="cls-2" d="M231.1,447.53c-22.51,34.16-68.76,133.51-69.5,135.26-3.8,8.76-19.85,40.03-36.59,62.94-4.8,6.57-7.66,14.35-8.34,22.46-.17,1.98-10.32,59.73-10.64,61.52-8.19,45.05-25.63,119.47-36.44,157.07-3.2,11.12-3.17,43.22-4.44,67.7,1.3,5.48,3.32,13.48,5.41,19.15,3.44,9.47,3.56,58.52,2.93,62.01-5.53,29.94-23.71,56.05-13.41,3.29,2.47-12.73-3.22-38.82-7.26-16.87-4.06,21.93-7.3,42.52-9.87,67.37-1.9,18.14-2.84,33.59-4.11,39.11-.55,2.43-6.44-.46-7.78-3.2-2.69-5.55,4.35-79.02,3.46-80.1-.74-.94-4.95,76.38-5.74,77.07-2.69,2.43-7.54-2.45-7.81-6.08-.14-2.09,2.69-76.88,1.56-78.06-1.13-1.2-2.14,71.09-2.72,73.66-.74,3.32-7.14-3.46-8.17-7.69-.74-3.05,1.59-69.77,1.18-71.19-.41-1.39-3.87,65.16-4.59,64.51-3.56-3.17-8.14-6.97-5.36-70.13.94-21.24,16.13-60.81,21.8-74.9,1.36-3.37,2.14-6.92,2.32-10.55,1.56-30.03,10.77-175.83,22.03-230.73,10.85-52.86,30.14-80.39,30.54-82.67,10.71-61.7,49.61-154.46,101.62-271.5,18.57-41.78,105.45-57.47,139.44-66.07,2.83-.72,5.31-2.47,6.8-5,8.36-14.25,13-36.21,15.38-51.05"/>
        <path class="cls-3" d="M370.31,449.34c-56.98-58.37-141.57-21.31-139.43,1.52,5.49,58.6,29.89,120.55,33.93,170.18,4.89,60.18-32.29,122.76-52.3,159.97-17.89,33.25-29.1,72.32-30.94,87.01-1.73,13.53,105.28-29.57,183.89,137.02.65,1.35,12.69,2.59,13.72,2.52,1.03.07,7.43-.35,7.91-1.72,53.02-148.84,158.97-137.03,162.17-161.01-.74,1.56-70.19-133.93-81.78-188.97-13.42-63.75,39.44-132.17,28.73-214.35-.47-3.58-2.33-6.84-5.11-9.13-8.82-7.27-30.57-21.53-60.87-16.57-36.22,5.93-59.91,33.54-59.91,33.54Z"/>
      </g>
      <polygon class="cls-1" points="368.41 308.94 105.71 995.78 631.11 995.78 368.41 308.94"/>
    </g>
  </g>
</svg>