<?xml version="1.0" encoding="UTF-8"?>
<svg id="Layer_2" data-name="Layer 2" xmlns="http://www.w3.org/2000/svg" viewBox="0 0 507.49 2051.81">
  <defs>
    <style>
      .cls-1 {
        stroke: #f0b42b;
        stroke-width: 30px;
      }

      .cls-1, .cls-2 {
        fill: none;
        stroke-linecap: round;
        stroke-linejoin: round;
      }

      .cls-3 {
        fill: #161616;
      }

      .cls-2 {
        stroke: #161616;
        stroke-width: 4px;
      }
    </style>
  </defs>
  <g id="Female_Body_Anatomy_Types" data-name="Female Body Anatomy Types">
    <g>
      <g>
        <path class="cls-3" d="M402.09,828.22c-3.2,23.98-79.64,12.04-132.67,160.88-.48,1.37-5.14,2.5-6.17,2.43-1.03.07-13.07-1.18-13.72-2.52-78.61-166.59-153.56-148.35-151.01-161.74,19.05-100.16,24.82-114.52,32.76-166.96,5.14-33.97-9.29-76.34-15.11-114.16v-.02c-8.46-55.21-9.63-109.41,40.94-108.91,21,.19,52.11-.7,95.76,32.84,0,0,58.14-48.15,104.48-33.71,34.14,10.62,39.83,43.03,35.85,81.97-5.36,52.21-27.29,102.87-23.37,170.53,3.33,57.51,30.41,107.97,32.26,139.37Z"/>
        <path class="cls-2" d="M414.22,1864.14c-.05.74-.12,1.49-.17,2.21,3.2,18.67,3.34,40.17,5.05,59.13,2.74,30.3,19.96,60.71,10.74,82.72-6.2,14.78-29.31,20.85-43.85,23.23-7.28,1.2-14.46-2.5-17.75-9.15-2.5-5.05-5.12-10.81-6.17-14.66-2.28-8.26,3.53-28.59,1.44-53.96-2.07-25.39,2.72-54.9-.82-72.75-1.13-5.72.12-13.05,2.33-20.35,7.74-122.22-30.34-202.05-19.2-357.08,3.36-46.95-7.14-86.47-14.32-107.2-1.92-5.54-3.12-11.29-3.55-17.08-1.25-17.04-3.14-34.01-6.82-50.69-1.31-5.96-2.69-12.32-4.14-19.13-6.37-29.77-47.21-317.51-47.57-320.28,53.02-148.83,127.33-135.69,130.53-159.67,18.93,85.63,22.44,168.46,17.66,311.15-2.96,88.66-5.21,147.62-5.14,193.92.03,18.14,2.76,36.18,8.4,53.42,11.79,36.02,23.63,87.6,19.2,189.25-5.02,115.03-23.3,255.17-25.85,286.98Z"/>
        <path class="cls-2" d="M236.53,2024.34c-.82,3.92-3.08,9.85-5.26,15.06-2.86,6.85-9.8,11.03-17.13,10.33-14.66-1.42-38.1-5.91-45.22-20.25-10.59-21.36,4.71-52.86,5.5-83.27.58-21.72-1.08-46.63,2.43-67.17-.1-.5-.17-1.03-.24-1.56-4.59-31.54-31.88-170.14-44.3-284.58-15.52-142.9,7.86-188.28,17.83-230.09,0-.01,0-.02,0-.04.58-2.51.84-5.08.57-7.65-5.19-47.7-14.58-108.09-29.55-202.99-22.3-141.2-34.19-151.12-32.19-231.39,1.11-44.21,5.69-76.14,11.53-93.48-2.59,13.38,70.42-4.85,149.03,161.74.05.58-15.02,282.37-17.63,312.78-1.39,15.99-2.15,29.78-2.72,41.81-.57,11.97.35,23.92,1.79,35.82,1.02,8.48.31,17.19-2,25.56-5.84,21.17-13.74,61.34-7.35,107.92,21.57,157.27-13.19,239.75,4.95,365.57.5,3.48.82,6.97.94,10.35v.05c.6,3.27.79,6.34.43,9.11-2.4,18.04,4.23,47.18,3.75,72.63-.48,25.47,6.61,45.38,4.85,53.74Z"/>
        <path class="cls-2" d="M504.22,1042.7c-9.15,62.51-14.61,65.32-18.88,67.75-.86.48,8.24-65.49,7.57-64.19-.67,1.3-11,67.22-12.37,70.06-1.85,3.94-9.75,9.32-9.87,5.91-.1-2.64,12.64-73.73,11.24-72.8-1.39.94-12.71,74.86-13.26,76.88-.98,3.53-6.89,7.33-9.23,4.42-.67-.84,9.71-77.51,8.77-76.76-1.13.89-7.86,74.36-11.7,79.28-1.9,2.4-8.53,4.08-8.65,1.59-.24-5.69,1.73-21.02,3.24-39.18,2.09-24.89,2.67-45.74,2.67-68.06s-10.84,2.11-10.72,15.11c.55,53.79-13.21,24.55-13.19-5.89,0-3.56,9.47-51.68,14.82-60.25,2.33-3.72,4.83-8.6,6.97-12.95v-.02c.74-24.34,3.27-55.57.86-66.72-8.22-38.32-29.67-178.55-31.26-215.79,0-.11,0-.22-.01-.34-.79-18.97-3.48-37.79-8.08-56.21-9.04-36.21-16.28-78.54-19.95-106.2,3.99-38.94-1.71-71.35-35.85-81.97-46.34-14.44-104.48,33.71-104.48,33.71-43.65-33.54-74.77-32.65-95.76-32.84-50.57-.5-49.4,53.7-40.94,108.91v.02c-6.52,30.7-13.74,69.15-22.27,99.41-3.33,11.81-5.07,24-4.93,36.27.04,3.13-.03,6.63-.17,10.54-1.3,37.24-21.65,177.64-29.58,216.01-1.94,9.45-.27,33.18.86,54.98.53,10.28,2.84,20.41,7.12,29.77.27.59.54,1.16.81,1.71,4.44,9.11,8.96,58,8.6,61.53-3.08,30.27-19.75,57.85-13.72,4.42,1.47-12.9-6.82-38.39-9.11-16.19-2.26,22.2-3.82,43-4.28,67.97-.34,18.23.05,33.71-.77,39.3-.38,2.47-6.8.1-8.43-2.5-3.34-5.31-2.55-79.09-3.58-80.1-.84-.87,1.68,76.52.91,77.29-2.62,2.62-8.12-1.8-8.72-5.41-.34-2.07-4.06-76.83-5.36-77.89-1.3-1.11,4.13,70.99,3.77,73.59-.48,3.39-7.78-2.81-9.23-6.94-1.06-2.96-4.61-69.65-5.17-71.02-.55-1.35,1.8,65.25.98,64.68-3.99-2.88-9.13-6.27-11.89-69.43-1.13-26.19,17.3-89.32,18.09-93.31,5.91-29.81-9.03-177.4-1.97-238.98.76-6.58,2.14-13.48,3.97-20.28,8.54-31.69,13.93-64.13,15.11-96.94,1.82-50.25,8.99-121.21,15.25-212.82,2.88-42.14,24.05-64.65,45.91-76.06,5.17-2.69,10.67-4.61,16.34-5.98,23.18-5.65,54.22-11.32,81.83-18.21,4.66-1.15,8.72-4.11,11.03-8.31,7.81-14.22,12.25-34.43,14.58-48.36,1.08.79,2.23,1.51,3.41,2.19,5.86,3.32,17.97,11.39,22.44,11.65.62.02,7.62.02,8.26.02,6.75-.26,18.26-8.07,24.63-11.68.96-.53,1.87-1.1,2.76-1.71,2.4,14.2,6.97,34.62,14.97,48.7,2.07,3.63,5.5,6.22,9.54,7.26,29.55,7.66,65.42,16.29,89.11,22.49,2.07.53,4.11,1.2,6.05,2.07,22.46,10.26,40.94,32.07,47.04,75.58,17.05,121.4,26.98,194.37,28.93,238.13.98,21.91,4.63,43.56,9.84,64.86,1.28,5.25,2.28,10.51,2.89,15.58,7.57,61.5-6.22,209.21-.05,239,.38,1.85.6,3.65.65,5.45v.02c9.15,18.28,15.69,59.99,11.56,88.2Z"/>
        <path class="cls-2" d="M333.18,100.09c.25-.48.4-.72.4-.72,0,0,3.81-4.71,8.2-.77,4.39,3.94-2.37,41.32-4.11,44.76-1.46,2.88-8.85,19.92-14.96,14.94"/>
        <path class="cls-2" d="M183.78,158.13c-6.13,5.53-13.69-11.87-15.16-14.78-1.74-3.44-8.5-40.82-4.11-44.76,4.39-3.94,8.2.77,8.2.77,0,0,.23.38.63,1.11"/>
        <path class="cls-2" d="M321.82,160.38c-12.16,28.37-16.24,60.3-38.13,74.98-.89.6-1.8,1.18-2.76,1.71-6.37,3.6-17.87,11.41-24.63,11.68-.65,0-7.64,0-8.26-.02-4.47-.26-16.58-8.34-22.44-11.65-1.18-.67-2.33-1.39-3.41-2.19-21.33-14.82-25.44-46.42-37.46-74.5-10.23-23.86-12.85-40-11.39-59.89v-.02c.31-4.69.89-9.59,1.63-14.85,3.87-27.29,3.39-83.61,76.71-83.61h1.87c74.62-.67,74.12,56.15,77.99,83.61,3.89,27.56,2.93,45.26-9.73,74.77Z"/>
      </g>
      <rect class="cls-1" x="66.46" y="343.63" width="374.56" height="677.64"/>
    </g>
  </g>
</svg>